<mxfile host="app.diagrams.net" modified="2021-02-08T06:22:14.173Z" agent="5.0 (Macintosh; Intel Mac OS X 10_14_5) AppleWebKit/537.36 (KHTML, like Gecko) Chrome/88.0.4324.96 Safari/537.36" etag="uJN_8mD5GMapxknTp6RN" version="14.1.8" type="github" pages="2">
  <diagram id="YVA8qYrDbPORgyeEavMD" name="Page-1">
    <mxGraphModel dx="3124" dy="1285" grid="1" gridSize="10" guides="1" tooltips="1" connect="1" arrows="1" fold="1" page="1" pageScale="1" pageWidth="827" pageHeight="1169" math="0" shadow="0">
      <root>
        <mxCell id="0" />
        <mxCell id="1" parent="0" />
        <mxCell id="V0Lfhw15EDiesG635cvr-149" value="" style="rounded=0;whiteSpace=wrap;html=1;dashed=1;fontSize=15;" vertex="1" parent="1">
          <mxGeometry x="-20" y="570" width="1560" height="112" as="geometry" />
        </mxCell>
        <mxCell id="V0Lfhw15EDiesG635cvr-1" value="" style="rounded=0;whiteSpace=wrap;html=1;dashed=1;fontSize=15;" vertex="1" parent="1">
          <mxGeometry x="-20" y="290" width="1810" height="250" as="geometry" />
        </mxCell>
        <mxCell id="V0Lfhw15EDiesG635cvr-105" value="" style="rounded=0;whiteSpace=wrap;html=1;dashed=1;fontSize=15;" vertex="1" parent="1">
          <mxGeometry x="-10" y="410" width="1560" height="112" as="geometry" />
        </mxCell>
        <mxCell id="V0Lfhw15EDiesG635cvr-2" value="" style="rounded=0;whiteSpace=wrap;html=1;fontSize=15;" vertex="1" parent="1">
          <mxGeometry x="-170" y="180" width="130" height="342" as="geometry" />
        </mxCell>
        <mxCell id="V0Lfhw15EDiesG635cvr-8" value="用户" style="shape=umlActor;verticalLabelPosition=bottom;verticalAlign=top;html=1;outlineConnect=0;align=left;" vertex="1" parent="1">
          <mxGeometry x="532.5" y="149.58" width="30.5" height="60" as="geometry" />
        </mxCell>
        <mxCell id="V0Lfhw15EDiesG635cvr-9" value="gateway" style="rounded=0;whiteSpace=wrap;html=1;fillColor=#dae8fc;strokeColor=#6c8ebf;fontSize=15;" vertex="1" parent="1">
          <mxGeometry y="320" width="1490" height="60" as="geometry" />
        </mxCell>
        <mxCell id="V0Lfhw15EDiesG635cvr-17" value="分销服务DCS" style="rounded=0;whiteSpace=wrap;html=1;fillColor=#d5e8d4;strokeColor=#82b366;verticalAlign=middle;" vertex="1" parent="1">
          <mxGeometry x="348" y="599.25" width="90.5" height="47.5" as="geometry" />
        </mxCell>
        <mxCell id="V0Lfhw15EDiesG635cvr-26" value="高级选项" style="shape=note;whiteSpace=wrap;html=1;backgroundOutline=1;darkOpacity=0.05;align=center;size=22;" vertex="1" parent="1">
          <mxGeometry x="710" y="140" width="70" height="90" as="geometry" />
        </mxCell>
        <mxCell id="V0Lfhw15EDiesG635cvr-32" value="内部网关&lt;br&gt;hippo" style="rounded=0;whiteSpace=wrap;html=1;fillColor=#d5e8d4;strokeColor=#82b366;" vertex="1" parent="1">
          <mxGeometry x="-1.5" y="603" width="92.5" height="40" as="geometry" />
        </mxCell>
        <mxCell id="V0Lfhw15EDiesG635cvr-38" value="" style="endArrow=classic;html=1;entryX=0.5;entryY=0;entryDx=0;entryDy=0;exitX=0.5;exitY=1;exitDx=0;exitDy=0;exitPerimeter=0;" edge="1" parent="1" source="V0Lfhw15EDiesG635cvr-26" target="V0Lfhw15EDiesG635cvr-9">
          <mxGeometry width="50" height="50" relative="1" as="geometry">
            <mxPoint x="646" y="570" as="sourcePoint" />
            <mxPoint x="646.04" y="469" as="targetPoint" />
          </mxGeometry>
        </mxCell>
        <mxCell id="V0Lfhw15EDiesG635cvr-40" value="" style="endArrow=classic;html=1;exitX=0.5;exitY=1;exitDx=0;exitDy=0;entryX=0.5;entryY=0;entryDx=0;entryDy=0;" edge="1" parent="1" source="V0Lfhw15EDiesG635cvr-110" target="V0Lfhw15EDiesG635cvr-132">
          <mxGeometry width="50" height="50" relative="1" as="geometry">
            <mxPoint x="759.5799999999999" y="529" as="sourcePoint" />
            <mxPoint x="760" y="640" as="targetPoint" />
          </mxGeometry>
        </mxCell>
        <mxCell id="V0Lfhw15EDiesG635cvr-51" value="postNote with bigJson" style="text;html=1;strokeColor=none;fillColor=none;align=center;verticalAlign=middle;whiteSpace=wrap;rounded=0;" vertex="1" parent="1">
          <mxGeometry x="754" y="260" width="125" height="20" as="geometry" />
        </mxCell>
        <mxCell id="V0Lfhw15EDiesG635cvr-59" value="" style="shape=flexArrow;endArrow=classic;html=1;endWidth=13.333333333333334;endSize=6.225;width=5;" edge="1" parent="1">
          <mxGeometry width="50" height="50" relative="1" as="geometry">
            <mxPoint x="588" y="184.5" as="sourcePoint" />
            <mxPoint x="698" y="184.5" as="targetPoint" />
          </mxGeometry>
        </mxCell>
        <mxCell id="V0Lfhw15EDiesG635cvr-79" value="高级选项发布" style="text;html=1;strokeColor=none;fillColor=none;align=center;verticalAlign=middle;whiteSpace=wrap;rounded=0;fontSize=15;" vertex="1" parent="1">
          <mxGeometry x="-1.5" y="140" width="161.5" height="70" as="geometry" />
        </mxCell>
        <mxCell id="V0Lfhw15EDiesG635cvr-83" value="&amp;nbsp;好物推荐" style="rounded=0;whiteSpace=wrap;html=1;fillColor=#dae8fc;strokeColor=#6c8ebf;" vertex="1" parent="1">
          <mxGeometry y="450" width="91" height="40" as="geometry" />
        </mxCell>
        <mxCell id="V0Lfhw15EDiesG635cvr-89" value="" style="shape=flexArrow;endArrow=classic;html=1;endWidth=13.333333333333334;endSize=6.225;width=5;" edge="1" parent="1">
          <mxGeometry x="-170" y="182" width="50" height="50" as="geometry">
            <mxPoint x="-149" y="229.57999999999993" as="sourcePoint" />
            <mxPoint x="-59" y="229.57999999999993" as="targetPoint" />
          </mxGeometry>
        </mxCell>
        <mxCell id="V0Lfhw15EDiesG635cvr-90" value="用户行为" style="text;html=1;align=center;verticalAlign=middle;resizable=0;points=[];autosize=1;" vertex="1" parent="1">
          <mxGeometry x="-149" y="209.57999999999998" width="60" height="20" as="geometry" />
        </mxCell>
        <mxCell id="V0Lfhw15EDiesG635cvr-91" value="" style="endArrow=classic;html=1;" edge="1" parent="1">
          <mxGeometry x="-170" y="182" width="50" height="50" as="geometry">
            <mxPoint x="-151" y="275" as="sourcePoint" />
            <mxPoint x="-62" y="275" as="targetPoint" />
          </mxGeometry>
        </mxCell>
        <mxCell id="V0Lfhw15EDiesG635cvr-92" value="数据流" style="edgeLabel;html=1;align=center;verticalAlign=middle;resizable=0;points=[];" vertex="1" connectable="0" parent="V0Lfhw15EDiesG635cvr-91">
          <mxGeometry x="-0.2622" y="2" relative="1" as="geometry">
            <mxPoint as="offset" />
          </mxGeometry>
        </mxCell>
        <mxCell id="V0Lfhw15EDiesG635cvr-93" value="内部服务" style="rounded=0;whiteSpace=wrap;html=1;fillColor=#dae8fc;strokeColor=#6c8ebf;" vertex="1" parent="1">
          <mxGeometry x="-150.5" y="317" width="91" height="40" as="geometry" />
        </mxCell>
        <mxCell id="V0Lfhw15EDiesG635cvr-94" value="外部依赖" style="rounded=0;whiteSpace=wrap;html=1;fillColor=#d5e8d4;strokeColor=#82b366;" vertex="1" parent="1">
          <mxGeometry x="-150.5" y="382" width="90.5" height="40" as="geometry" />
        </mxCell>
        <mxCell id="V0Lfhw15EDiesG635cvr-95" value="定时任务" style="rounded=1;whiteSpace=wrap;html=1;align=center;fillColor=#f8cecc;strokeColor=#b85450;" vertex="1" parent="1">
          <mxGeometry x="-150" y="442" width="90" height="44" as="geometry" />
        </mxCell>
        <mxCell id="V0Lfhw15EDiesG635cvr-100" value="" style="endArrow=classic;html=1;fontSize=15;exitX=0.5;exitY=1;exitDx=0;exitDy=0;" edge="1" parent="1" source="V0Lfhw15EDiesG635cvr-83" target="V0Lfhw15EDiesG635cvr-32">
          <mxGeometry width="50" height="50" relative="1" as="geometry">
            <mxPoint x="520" y="810" as="sourcePoint" />
            <mxPoint x="626" y="690" as="targetPoint" />
          </mxGeometry>
        </mxCell>
        <mxCell id="V0Lfhw15EDiesG635cvr-104" value="Jarvis" style="text;html=1;strokeColor=none;fillColor=none;align=center;verticalAlign=middle;whiteSpace=wrap;rounded=0;fontSize=15;" vertex="1" parent="1">
          <mxGeometry x="110" y="280" width="110" height="50" as="geometry" />
        </mxCell>
        <mxCell id="V0Lfhw15EDiesG635cvr-106" value="BL" style="text;html=1;strokeColor=none;fillColor=none;align=center;verticalAlign=middle;whiteSpace=wrap;rounded=0;fontSize=15;" vertex="1" parent="1">
          <mxGeometry x="-30" y="400" width="110" height="50" as="geometry" />
        </mxCell>
        <mxCell id="V0Lfhw15EDiesG635cvr-107" value="品牌合作" style="rounded=0;whiteSpace=wrap;html=1;fillColor=#dae8fc;strokeColor=#6c8ebf;" vertex="1" parent="1">
          <mxGeometry x="119.5" y="450" width="91" height="40" as="geometry" />
        </mxCell>
        <mxCell id="V0Lfhw15EDiesG635cvr-108" value="商业报备" style="rounded=0;whiteSpace=wrap;html=1;fillColor=#dae8fc;strokeColor=#6c8ebf;" vertex="1" parent="1">
          <mxGeometry x="242" y="450" width="91" height="40" as="geometry" />
        </mxCell>
        <mxCell id="V0Lfhw15EDiesG635cvr-109" value="新品体验" style="rounded=0;whiteSpace=wrap;html=1;fillColor=#dae8fc;strokeColor=#6c8ebf;" vertex="1" parent="1">
          <mxGeometry x="1010" y="450" width="91" height="40" as="geometry" />
        </mxCell>
        <mxCell id="V0Lfhw15EDiesG635cvr-110" value="三方商品" style="rounded=0;whiteSpace=wrap;html=1;fillColor=#dae8fc;strokeColor=#6c8ebf;" vertex="1" parent="1">
          <mxGeometry x="629.5" y="450" width="91" height="40" as="geometry" />
        </mxCell>
        <mxCell id="V0Lfhw15EDiesG635cvr-111" value="营销模板" style="rounded=0;whiteSpace=wrap;html=1;fillColor=#dae8fc;strokeColor=#6c8ebf;" vertex="1" parent="1">
          <mxGeometry x="754" y="450" width="91" height="40" as="geometry" />
        </mxCell>
        <mxCell id="V0Lfhw15EDiesG635cvr-112" value="抽奖活动" style="rounded=0;whiteSpace=wrap;html=1;fillColor=#dae8fc;strokeColor=#6c8ebf;" vertex="1" parent="1">
          <mxGeometry x="880" y="450" width="91" height="40" as="geometry" />
        </mxCell>
        <mxCell id="V0Lfhw15EDiesG635cvr-113" value="电商店铺" style="rounded=0;whiteSpace=wrap;html=1;fillColor=#dae8fc;strokeColor=#6c8ebf;" vertex="1" parent="1">
          <mxGeometry x="372" y="450" width="91" height="40" as="geometry" />
        </mxCell>
        <mxCell id="V0Lfhw15EDiesG635cvr-115" value="我的薯店" style="rounded=0;whiteSpace=wrap;html=1;fillColor=#dae8fc;strokeColor=#6c8ebf;" vertex="1" parent="1">
          <mxGeometry x="497" y="450" width="91" height="40" as="geometry" />
        </mxCell>
        <mxCell id="V0Lfhw15EDiesG635cvr-117" value="直播预告" style="rounded=0;whiteSpace=wrap;html=1;fillColor=#dae8fc;strokeColor=#6c8ebf;" vertex="1" parent="1">
          <mxGeometry x="1140" y="450" width="91" height="40" as="geometry" />
        </mxCell>
        <mxCell id="V0Lfhw15EDiesG635cvr-118" value="视频合集" style="rounded=0;whiteSpace=wrap;html=1;fillColor=#dae8fc;strokeColor=#6c8ebf;" vertex="1" parent="1">
          <mxGeometry x="1270" y="450" width="91" height="40" as="geometry" />
        </mxCell>
        <mxCell id="V0Lfhw15EDiesG635cvr-120" value="原创声明" style="rounded=0;whiteSpace=wrap;html=1;fillColor=#dae8fc;strokeColor=#6c8ebf;" vertex="1" parent="1">
          <mxGeometry x="1400" y="450" width="91" height="40" as="geometry" />
        </mxCell>
        <mxCell id="V0Lfhw15EDiesG635cvr-122" value="" style="endArrow=classic;html=1;fontSize=15;exitX=0.5;exitY=1;exitDx=0;exitDy=0;dashed=1;entryX=0.5;entryY=1;entryDx=0;entryDy=0;" edge="1" parent="1" source="V0Lfhw15EDiesG635cvr-32" target="V0Lfhw15EDiesG635cvr-17">
          <mxGeometry width="50" height="50" relative="1" as="geometry">
            <mxPoint x="666" y="830" as="sourcePoint" />
            <mxPoint x="240" y="620" as="targetPoint" />
            <Array as="points">
              <mxPoint x="45" y="720" />
              <mxPoint x="170" y="720" />
              <mxPoint x="290" y="720" />
              <mxPoint x="393" y="720" />
            </Array>
          </mxGeometry>
        </mxCell>
        <mxCell id="V0Lfhw15EDiesG635cvr-123" value="品牌服务brandCooperate" style="rounded=0;whiteSpace=wrap;html=1;fillColor=#d5e8d4;strokeColor=#82b366;" vertex="1" parent="1">
          <mxGeometry x="117" y="599.25" width="93.5" height="47.5" as="geometry" />
        </mxCell>
        <mxCell id="V0Lfhw15EDiesG635cvr-124" value="笔记服务&lt;br style=&quot;font-size: 15px;&quot;&gt;RNS" style="rounded=0;whiteSpace=wrap;html=1;fillColor=#d5e8d4;strokeColor=#82b366;fontSize=15;" vertex="1" parent="1">
          <mxGeometry x="40" y="740" width="1450" height="47.5" as="geometry" />
        </mxCell>
        <mxCell id="V0Lfhw15EDiesG635cvr-125" value="" style="endArrow=classic;html=1;fontSize=15;exitX=0.5;exitY=1;exitDx=0;exitDy=0;entryX=0.5;entryY=0;entryDx=0;entryDy=0;" edge="1" parent="1" source="V0Lfhw15EDiesG635cvr-107" target="V0Lfhw15EDiesG635cvr-123">
          <mxGeometry width="50" height="50" relative="1" as="geometry">
            <mxPoint x="146.14" y="520" as="sourcePoint" />
            <mxPoint x="145.50278195488738" y="633" as="targetPoint" />
          </mxGeometry>
        </mxCell>
        <mxCell id="V0Lfhw15EDiesG635cvr-127" value="" style="endArrow=classic;html=1;fontSize=15;exitX=0.5;exitY=1;exitDx=0;exitDy=0;" edge="1" parent="1" source="V0Lfhw15EDiesG635cvr-107">
          <mxGeometry width="50" height="50" relative="1" as="geometry">
            <mxPoint x="175" y="500" as="sourcePoint" />
            <mxPoint x="393" y="599" as="targetPoint" />
          </mxGeometry>
        </mxCell>
        <mxCell id="V0Lfhw15EDiesG635cvr-128" value="" style="endArrow=classic;html=1;fontSize=15;exitX=0.5;exitY=1;exitDx=0;exitDy=0;entryX=0.168;entryY=0.021;entryDx=0;entryDy=0;entryPerimeter=0;" edge="1" parent="1" source="V0Lfhw15EDiesG635cvr-108" target="V0Lfhw15EDiesG635cvr-124">
          <mxGeometry width="50" height="50" relative="1" as="geometry">
            <mxPoint x="175" y="500" as="sourcePoint" />
            <mxPoint x="108" y="545" as="targetPoint" />
          </mxGeometry>
        </mxCell>
        <mxCell id="V0Lfhw15EDiesG635cvr-129" value="" style="endArrow=classic;html=1;fontSize=15;exitX=0.5;exitY=1;exitDx=0;exitDy=0;entryX=0.5;entryY=0;entryDx=0;entryDy=0;" edge="1" parent="1" source="V0Lfhw15EDiesG635cvr-108" target="V0Lfhw15EDiesG635cvr-17">
          <mxGeometry width="50" height="50" relative="1" as="geometry">
            <mxPoint x="252" y="500" as="sourcePoint" />
            <mxPoint x="118" y="555" as="targetPoint" />
          </mxGeometry>
        </mxCell>
        <mxCell id="V0Lfhw15EDiesG635cvr-130" value="" style="endArrow=classic;html=1;fontSize=15;exitX=0.5;exitY=1;exitDx=0;exitDy=0;entryX=0.5;entryY=0;entryDx=0;entryDy=0;" edge="1" parent="1" source="V0Lfhw15EDiesG635cvr-113" target="V0Lfhw15EDiesG635cvr-17">
          <mxGeometry width="50" height="50" relative="1" as="geometry">
            <mxPoint x="297.5" y="500" as="sourcePoint" />
            <mxPoint x="403.25" y="609.25" as="targetPoint" />
          </mxGeometry>
        </mxCell>
        <mxCell id="V0Lfhw15EDiesG635cvr-131" value="" style="endArrow=classic;html=1;fontSize=15;exitX=0.5;exitY=1;exitDx=0;exitDy=0;" edge="1" parent="1" source="V0Lfhw15EDiesG635cvr-115">
          <mxGeometry width="50" height="50" relative="1" as="geometry">
            <mxPoint x="427.5" y="500" as="sourcePoint" />
            <mxPoint x="390" y="600" as="targetPoint" />
          </mxGeometry>
        </mxCell>
        <mxCell id="V0Lfhw15EDiesG635cvr-132" value="企业号服务&lt;br&gt;Deimos" style="rounded=0;whiteSpace=wrap;html=1;fillColor=#d5e8d4;strokeColor=#82b366;verticalAlign=middle;" vertex="1" parent="1">
          <mxGeometry x="629.5" y="599.25" width="90.5" height="47.5" as="geometry" />
        </mxCell>
        <mxCell id="V0Lfhw15EDiesG635cvr-133" value="活动服务&lt;br&gt;BAS" style="rounded=0;whiteSpace=wrap;html=1;fillColor=#d5e8d4;strokeColor=#82b366;verticalAlign=middle;" vertex="1" parent="1">
          <mxGeometry x="820" y="599.25" width="90.5" height="47.5" as="geometry" />
        </mxCell>
        <mxCell id="V0Lfhw15EDiesG635cvr-134" value="" style="endArrow=classic;html=1;exitX=0.5;exitY=1;exitDx=0;exitDy=0;entryX=0.5;entryY=0;entryDx=0;entryDy=0;" edge="1" parent="1" source="V0Lfhw15EDiesG635cvr-111" target="V0Lfhw15EDiesG635cvr-133">
          <mxGeometry width="50" height="50" relative="1" as="geometry">
            <mxPoint x="685" y="500" as="sourcePoint" />
            <mxPoint x="684.75" y="609.25" as="targetPoint" />
          </mxGeometry>
        </mxCell>
        <mxCell id="V0Lfhw15EDiesG635cvr-135" value="" style="endArrow=classic;html=1;exitX=0.5;exitY=1;exitDx=0;exitDy=0;entryX=0.5;entryY=0;entryDx=0;entryDy=0;" edge="1" parent="1" source="V0Lfhw15EDiesG635cvr-112" target="V0Lfhw15EDiesG635cvr-133">
          <mxGeometry width="50" height="50" relative="1" as="geometry">
            <mxPoint x="809.5" y="500" as="sourcePoint" />
            <mxPoint x="875.25" y="609.25" as="targetPoint" />
          </mxGeometry>
        </mxCell>
        <mxCell id="V0Lfhw15EDiesG635cvr-136" value="新品试用&lt;br&gt;ExperienceCenter" style="rounded=0;whiteSpace=wrap;html=1;fillColor=#d5e8d4;strokeColor=#82b366;verticalAlign=middle;" vertex="1" parent="1">
          <mxGeometry x="1010.5" y="593.75" width="90.5" height="47.5" as="geometry" />
        </mxCell>
        <mxCell id="V0Lfhw15EDiesG635cvr-137" value="" style="endArrow=classic;html=1;exitX=0.5;exitY=1;exitDx=0;exitDy=0;entryX=0.5;entryY=0;entryDx=0;entryDy=0;" edge="1" parent="1" source="V0Lfhw15EDiesG635cvr-109" target="V0Lfhw15EDiesG635cvr-136">
          <mxGeometry width="50" height="50" relative="1" as="geometry">
            <mxPoint x="935.5" y="500" as="sourcePoint" />
            <mxPoint x="875.25" y="609.25" as="targetPoint" />
          </mxGeometry>
        </mxCell>
        <mxCell id="V0Lfhw15EDiesG635cvr-138" value="直播服务&lt;br&gt;Live" style="rounded=0;whiteSpace=wrap;html=1;fillColor=#d5e8d4;strokeColor=#82b366;verticalAlign=middle;" vertex="1" parent="1">
          <mxGeometry x="1140" y="593.75" width="90.5" height="47.5" as="geometry" />
        </mxCell>
        <mxCell id="V0Lfhw15EDiesG635cvr-140" value="创作者服务&lt;br&gt;Creator" style="rounded=0;whiteSpace=wrap;html=1;fillColor=#d5e8d4;strokeColor=#82b366;" vertex="1" parent="1">
          <mxGeometry x="1400" y="593.75" width="93.5" height="47.5" as="geometry" />
        </mxCell>
        <mxCell id="V0Lfhw15EDiesG635cvr-141" value="" style="endArrow=classic;html=1;exitX=0.5;exitY=1;exitDx=0;exitDy=0;entryX=0.5;entryY=0;entryDx=0;entryDy=0;" edge="1" parent="1" source="V0Lfhw15EDiesG635cvr-117" target="V0Lfhw15EDiesG635cvr-138">
          <mxGeometry width="50" height="50" relative="1" as="geometry">
            <mxPoint x="1065.5" y="500" as="sourcePoint" />
            <mxPoint x="1065.75" y="603.75" as="targetPoint" />
          </mxGeometry>
        </mxCell>
        <mxCell id="V0Lfhw15EDiesG635cvr-142" value="" style="endArrow=classic;html=1;exitX=0.5;exitY=1;exitDx=0;exitDy=0;" edge="1" parent="1" source="V0Lfhw15EDiesG635cvr-118">
          <mxGeometry width="50" height="50" relative="1" as="geometry">
            <mxPoint x="1195.5" y="500" as="sourcePoint" />
            <mxPoint x="1320" y="740" as="targetPoint" />
          </mxGeometry>
        </mxCell>
        <mxCell id="V0Lfhw15EDiesG635cvr-143" value="" style="endArrow=classic;html=1;exitX=0.5;exitY=1;exitDx=0;exitDy=0;entryX=0.5;entryY=0;entryDx=0;entryDy=0;" edge="1" parent="1" source="V0Lfhw15EDiesG635cvr-120" target="V0Lfhw15EDiesG635cvr-140">
          <mxGeometry width="50" height="50" relative="1" as="geometry">
            <mxPoint x="1325.5" y="500" as="sourcePoint" />
            <mxPoint x="1326.75" y="603.75" as="targetPoint" />
          </mxGeometry>
        </mxCell>
        <mxCell id="V0Lfhw15EDiesG635cvr-147" value="" style="endArrow=classic;html=1;fontSize=15;exitX=0.5;exitY=1;exitDx=0;exitDy=0;entryX=0.5;entryY=0;entryDx=0;entryDy=0;" edge="1" parent="1" source="V0Lfhw15EDiesG635cvr-105" target="V0Lfhw15EDiesG635cvr-124">
          <mxGeometry width="50" height="50" relative="1" as="geometry">
            <mxPoint x="55.5" y="500" as="sourcePoint" />
            <mxPoint x="54.862781954887396" y="613" as="targetPoint" />
          </mxGeometry>
        </mxCell>
        <mxCell id="V0Lfhw15EDiesG635cvr-148" value="各业务打标" style="edgeLabel;html=1;align=center;verticalAlign=middle;resizable=0;points=[];" vertex="1" connectable="0" parent="V0Lfhw15EDiesG635cvr-147">
          <mxGeometry x="0.266" relative="1" as="geometry">
            <mxPoint as="offset" />
          </mxGeometry>
        </mxCell>
        <mxCell id="V0Lfhw15EDiesG635cvr-150" value="外部依赖" style="text;html=1;strokeColor=none;fillColor=none;align=center;verticalAlign=middle;whiteSpace=wrap;rounded=0;fontSize=15;" vertex="1" parent="1">
          <mxGeometry x="-40" y="560" width="110" height="50" as="geometry" />
        </mxCell>
        <mxCell id="V0Lfhw15EDiesG635cvr-151" value="笔记打标" style="rounded=0;whiteSpace=wrap;html=1;fillColor=#f8cecc;strokeColor=#b85450;fontSize=14;" vertex="1" parent="1">
          <mxGeometry x="1610" y="370" width="140" height="120" as="geometry" />
        </mxCell>
        <mxCell id="V0Lfhw15EDiesG635cvr-152" value="" style="endArrow=classic;html=1;exitX=0.5;exitY=1;exitDx=0;exitDy=0;entryX=1;entryY=0.5;entryDx=0;entryDy=0;" edge="1" parent="1" source="V0Lfhw15EDiesG635cvr-151" target="V0Lfhw15EDiesG635cvr-149">
          <mxGeometry width="50" height="50" relative="1" as="geometry">
            <mxPoint x="1166" y="956" as="sourcePoint" />
            <mxPoint x="1251" y="956" as="targetPoint" />
            <Array as="points" />
          </mxGeometry>
        </mxCell>
        <mxCell id="V0Lfhw15EDiesG635cvr-155" value="打标查询" style="edgeLabel;html=1;align=center;verticalAlign=middle;resizable=0;points=[];fontSize=15;" vertex="1" connectable="0" parent="V0Lfhw15EDiesG635cvr-152">
          <mxGeometry x="-0.3389" y="3" relative="1" as="geometry">
            <mxPoint y="-1" as="offset" />
          </mxGeometry>
        </mxCell>
        <mxCell id="V0Lfhw15EDiesG635cvr-153" value="" style="endArrow=classic;html=1;exitX=1;exitY=0.5;exitDx=0;exitDy=0;" edge="1" parent="1" source="V0Lfhw15EDiesG635cvr-105">
          <mxGeometry width="50" height="50" relative="1" as="geometry">
            <mxPoint x="1690" y="500" as="sourcePoint" />
            <mxPoint x="1610" y="430" as="targetPoint" />
            <Array as="points">
              <mxPoint x="1610" y="430" />
            </Array>
          </mxGeometry>
        </mxCell>
        <mxCell id="V0Lfhw15EDiesG635cvr-154" value="打标记录" style="edgeLabel;html=1;align=center;verticalAlign=middle;resizable=0;points=[];fontSize=15;" vertex="1" connectable="0" parent="V0Lfhw15EDiesG635cvr-153">
          <mxGeometry x="0.0014" relative="1" as="geometry">
            <mxPoint as="offset" />
          </mxGeometry>
        </mxCell>
        <mxCell id="V0Lfhw15EDiesG635cvr-158" value="" style="endArrow=classic;html=1;entryX=1;entryY=0.75;entryDx=0;entryDy=0;" edge="1" parent="1" target="V0Lfhw15EDiesG635cvr-124">
          <mxGeometry width="50" height="50" relative="1" as="geometry">
            <mxPoint x="1680" y="490" as="sourcePoint" />
            <mxPoint x="1550" y="636" as="targetPoint" />
            <Array as="points">
              <mxPoint x="1680" y="776" />
            </Array>
          </mxGeometry>
        </mxCell>
        <mxCell id="V0Lfhw15EDiesG635cvr-159" value="打标补偿" style="edgeLabel;html=1;align=center;verticalAlign=middle;resizable=0;points=[];fontSize=15;" vertex="1" connectable="0" parent="V0Lfhw15EDiesG635cvr-158">
          <mxGeometry x="-0.3389" y="3" relative="1" as="geometry">
            <mxPoint y="-1" as="offset" />
          </mxGeometry>
        </mxCell>
      </root>
    </mxGraphModel>
  </diagram>
  <diagram id="h96FHqiIY2yVBG3J6VQw" name="Page-2">
    <mxGraphModel dx="3124" dy="1285" grid="1" gridSize="10" guides="1" tooltips="1" connect="1" arrows="1" fold="1" page="1" pageScale="1" pageWidth="827" pageHeight="1169" math="0" shadow="0">
      <root>
        <mxCell id="zTb9bjckPZFEyJv1jTCt-0" />
        <mxCell id="zTb9bjckPZFEyJv1jTCt-1" parent="zTb9bjckPZFEyJv1jTCt-0" />
        <mxCell id="6Pmjs6g1F7uVUQrjsBlr-0" value="" style="rounded=0;whiteSpace=wrap;html=1;dashed=1;fontSize=15;" vertex="1" parent="zTb9bjckPZFEyJv1jTCt-1">
          <mxGeometry x="-20" y="570" width="1800" height="370" as="geometry" />
        </mxCell>
        <mxCell id="6Pmjs6g1F7uVUQrjsBlr-1" value="" style="rounded=0;whiteSpace=wrap;html=1;dashed=1;fontSize=15;" vertex="1" parent="zTb9bjckPZFEyJv1jTCt-1">
          <mxGeometry x="-30" y="250" width="1760" height="300" as="geometry" />
        </mxCell>
        <mxCell id="6Pmjs6g1F7uVUQrjsBlr-2" value="" style="rounded=0;whiteSpace=wrap;html=1;dashed=1;fontSize=15;" vertex="1" parent="zTb9bjckPZFEyJv1jTCt-1">
          <mxGeometry x="-10" y="410" width="1560" height="112" as="geometry" />
        </mxCell>
        <mxCell id="6Pmjs6g1F7uVUQrjsBlr-3" value="" style="rounded=0;whiteSpace=wrap;html=1;fontSize=15;" vertex="1" parent="zTb9bjckPZFEyJv1jTCt-1">
          <mxGeometry x="-170" y="180" width="130" height="342" as="geometry" />
        </mxCell>
        <mxCell id="6Pmjs6g1F7uVUQrjsBlr-4" value="用户" style="shape=umlActor;verticalLabelPosition=bottom;verticalAlign=top;html=1;outlineConnect=0;align=left;" vertex="1" parent="zTb9bjckPZFEyJv1jTCt-1">
          <mxGeometry x="532.5" y="87.58000000000001" width="30.5" height="60" as="geometry" />
        </mxCell>
        <mxCell id="6Pmjs6g1F7uVUQrjsBlr-5" value="gateway" style="rounded=0;whiteSpace=wrap;html=1;fillColor=#dae8fc;strokeColor=#6c8ebf;fontSize=15;" vertex="1" parent="zTb9bjckPZFEyJv1jTCt-1">
          <mxGeometry x="3.5" y="307" width="1490" height="60" as="geometry" />
        </mxCell>
        <mxCell id="6Pmjs6g1F7uVUQrjsBlr-6" value="笔记服务&lt;br style=&quot;font-size: 15px&quot;&gt;RNS" style="rounded=0;whiteSpace=wrap;html=1;fillColor=#d5e8d4;strokeColor=#82b366;verticalAlign=middle;fontSize=15;" vertex="1" parent="zTb9bjckPZFEyJv1jTCt-1">
          <mxGeometry x="372.5" y="610" width="90.5" height="47.5" as="geometry" />
        </mxCell>
        <mxCell id="6Pmjs6g1F7uVUQrjsBlr-7" value="高级选项菜单列表页" style="shape=note;whiteSpace=wrap;html=1;backgroundOutline=1;darkOpacity=0.05;align=center;size=22;" vertex="1" parent="zTb9bjckPZFEyJv1jTCt-1">
          <mxGeometry x="713.5" y="77.58" width="70" height="90" as="geometry" />
        </mxCell>
        <mxCell id="6Pmjs6g1F7uVUQrjsBlr-8" value="网关&lt;br style=&quot;font-size: 15px;&quot;&gt;hippo" style="rounded=0;whiteSpace=wrap;html=1;fillColor=#d5e8d4;strokeColor=#82b366;fontSize=15;" vertex="1" parent="zTb9bjckPZFEyJv1jTCt-1">
          <mxGeometry x="242" y="610.75" width="92.5" height="46.75" as="geometry" />
        </mxCell>
        <mxCell id="6Pmjs6g1F7uVUQrjsBlr-9" value="" style="endArrow=classic;html=1;entryX=0.5;entryY=1;entryDx=0;entryDy=0;entryPerimeter=0;" edge="1" parent="zTb9bjckPZFEyJv1jTCt-1" source="6Pmjs6g1F7uVUQrjsBlr-5" target="6Pmjs6g1F7uVUQrjsBlr-7">
          <mxGeometry width="50" height="50" relative="1" as="geometry">
            <mxPoint x="646" y="570" as="sourcePoint" />
            <mxPoint x="646.04" y="469" as="targetPoint" />
          </mxGeometry>
        </mxCell>
        <mxCell id="6Pmjs6g1F7uVUQrjsBlr-10" value="" style="endArrow=none;html=1;exitX=0.5;exitY=1;exitDx=0;exitDy=0;entryX=0.5;entryY=0;entryDx=0;entryDy=0;startArrow=classic;startFill=1;endFill=0;" edge="1" parent="zTb9bjckPZFEyJv1jTCt-1" source="6Pmjs6g1F7uVUQrjsBlr-28" target="6Pmjs6g1F7uVUQrjsBlr-45">
          <mxGeometry width="50" height="50" relative="1" as="geometry">
            <mxPoint x="759.5799999999999" y="529" as="sourcePoint" />
            <mxPoint x="760" y="640" as="targetPoint" />
          </mxGeometry>
        </mxCell>
        <mxCell id="6Pmjs6g1F7uVUQrjsBlr-11" value="全局配置 bigJson" style="text;html=1;strokeColor=none;fillColor=none;align=center;verticalAlign=middle;whiteSpace=wrap;rounded=0;fontSize=15;" vertex="1" parent="zTb9bjckPZFEyJv1jTCt-1">
          <mxGeometry x="612.75" y="199.58" width="125" height="30.42" as="geometry" />
        </mxCell>
        <mxCell id="6Pmjs6g1F7uVUQrjsBlr-12" value="" style="shape=flexArrow;endArrow=classic;html=1;endWidth=13.333333333333334;endSize=6.225;width=5;" edge="1" parent="zTb9bjckPZFEyJv1jTCt-1">
          <mxGeometry width="50" height="50" relative="1" as="geometry">
            <mxPoint x="588" y="122.5" as="sourcePoint" />
            <mxPoint x="698" y="122.5" as="targetPoint" />
          </mxGeometry>
        </mxCell>
        <mxCell id="6Pmjs6g1F7uVUQrjsBlr-13" value="高级选项下发" style="text;html=1;strokeColor=none;fillColor=none;align=center;verticalAlign=middle;whiteSpace=wrap;rounded=0;fontSize=15;" vertex="1" parent="zTb9bjckPZFEyJv1jTCt-1">
          <mxGeometry x="-51.5" y="87.58" width="161.5" height="70" as="geometry" />
        </mxCell>
        <mxCell id="6Pmjs6g1F7uVUQrjsBlr-14" value="&amp;nbsp;好物推荐" style="rounded=0;whiteSpace=wrap;html=1;fillColor=#dae8fc;strokeColor=#6c8ebf;fontSize=15;" vertex="1" parent="zTb9bjckPZFEyJv1jTCt-1">
          <mxGeometry y="450" width="91" height="40" as="geometry" />
        </mxCell>
        <mxCell id="6Pmjs6g1F7uVUQrjsBlr-15" value="" style="shape=flexArrow;endArrow=classic;html=1;endWidth=13.333333333333334;endSize=6.225;width=5;" edge="1" parent="zTb9bjckPZFEyJv1jTCt-1">
          <mxGeometry x="-170" y="182" width="50" height="50" as="geometry">
            <mxPoint x="-149" y="229.57999999999993" as="sourcePoint" />
            <mxPoint x="-59" y="229.57999999999993" as="targetPoint" />
          </mxGeometry>
        </mxCell>
        <mxCell id="6Pmjs6g1F7uVUQrjsBlr-16" value="用户行为" style="text;html=1;align=center;verticalAlign=middle;resizable=0;points=[];autosize=1;" vertex="1" parent="zTb9bjckPZFEyJv1jTCt-1">
          <mxGeometry x="-149" y="209.57999999999998" width="60" height="20" as="geometry" />
        </mxCell>
        <mxCell id="6Pmjs6g1F7uVUQrjsBlr-17" value="" style="endArrow=classic;html=1;" edge="1" parent="zTb9bjckPZFEyJv1jTCt-1">
          <mxGeometry x="-170" y="182" width="50" height="50" as="geometry">
            <mxPoint x="-151" y="275" as="sourcePoint" />
            <mxPoint x="-62" y="275" as="targetPoint" />
          </mxGeometry>
        </mxCell>
        <mxCell id="6Pmjs6g1F7uVUQrjsBlr-18" value="数据流" style="edgeLabel;html=1;align=center;verticalAlign=middle;resizable=0;points=[];" vertex="1" connectable="0" parent="6Pmjs6g1F7uVUQrjsBlr-17">
          <mxGeometry x="-0.2622" y="2" relative="1" as="geometry">
            <mxPoint as="offset" />
          </mxGeometry>
        </mxCell>
        <mxCell id="6Pmjs6g1F7uVUQrjsBlr-19" value="内部服务" style="rounded=0;whiteSpace=wrap;html=1;fillColor=#dae8fc;strokeColor=#6c8ebf;" vertex="1" parent="zTb9bjckPZFEyJv1jTCt-1">
          <mxGeometry x="-150.5" y="317" width="91" height="40" as="geometry" />
        </mxCell>
        <mxCell id="6Pmjs6g1F7uVUQrjsBlr-20" value="外部依赖" style="rounded=0;whiteSpace=wrap;html=1;fillColor=#d5e8d4;strokeColor=#82b366;" vertex="1" parent="zTb9bjckPZFEyJv1jTCt-1">
          <mxGeometry x="-150.5" y="382" width="90.5" height="40" as="geometry" />
        </mxCell>
        <mxCell id="6Pmjs6g1F7uVUQrjsBlr-21" value="定时任务" style="rounded=1;whiteSpace=wrap;html=1;align=center;fillColor=#f8cecc;strokeColor=#b85450;" vertex="1" parent="zTb9bjckPZFEyJv1jTCt-1">
          <mxGeometry x="-150" y="442" width="90" height="44" as="geometry" />
        </mxCell>
        <mxCell id="6Pmjs6g1F7uVUQrjsBlr-22" value="" style="endArrow=none;html=1;fontSize=15;exitX=0.5;exitY=1;exitDx=0;exitDy=0;startArrow=classic;startFill=1;endFill=0;" edge="1" parent="zTb9bjckPZFEyJv1jTCt-1" source="6Pmjs6g1F7uVUQrjsBlr-14" target="6Pmjs6g1F7uVUQrjsBlr-8">
          <mxGeometry width="50" height="50" relative="1" as="geometry">
            <mxPoint x="520" y="810" as="sourcePoint" />
            <mxPoint x="626" y="690" as="targetPoint" />
          </mxGeometry>
        </mxCell>
        <mxCell id="6Pmjs6g1F7uVUQrjsBlr-23" value="Jarvis" style="text;html=1;strokeColor=none;fillColor=none;align=center;verticalAlign=middle;whiteSpace=wrap;rounded=0;fontSize=15;" vertex="1" parent="zTb9bjckPZFEyJv1jTCt-1">
          <mxGeometry x="-51.5" y="180" width="110" height="50" as="geometry" />
        </mxCell>
        <mxCell id="6Pmjs6g1F7uVUQrjsBlr-24" value="BL" style="text;html=1;strokeColor=none;fillColor=none;align=center;verticalAlign=middle;whiteSpace=wrap;rounded=0;fontSize=15;" vertex="1" parent="zTb9bjckPZFEyJv1jTCt-1">
          <mxGeometry x="-30" y="400" width="110" height="50" as="geometry" />
        </mxCell>
        <mxCell id="6Pmjs6g1F7uVUQrjsBlr-25" value="品牌合作" style="rounded=0;whiteSpace=wrap;html=1;fillColor=#dae8fc;strokeColor=#6c8ebf;fontSize=15;" vertex="1" parent="zTb9bjckPZFEyJv1jTCt-1">
          <mxGeometry x="119.5" y="450" width="91" height="40" as="geometry" />
        </mxCell>
        <mxCell id="6Pmjs6g1F7uVUQrjsBlr-26" value="商业报备" style="rounded=0;whiteSpace=wrap;html=1;fillColor=#dae8fc;strokeColor=#6c8ebf;fontSize=15;" vertex="1" parent="zTb9bjckPZFEyJv1jTCt-1">
          <mxGeometry x="242" y="450" width="91" height="40" as="geometry" />
        </mxCell>
        <mxCell id="6Pmjs6g1F7uVUQrjsBlr-27" value="新品体验" style="rounded=0;whiteSpace=wrap;html=1;fillColor=#dae8fc;strokeColor=#6c8ebf;fontSize=15;" vertex="1" parent="zTb9bjckPZFEyJv1jTCt-1">
          <mxGeometry x="1010" y="450" width="91" height="40" as="geometry" />
        </mxCell>
        <mxCell id="6Pmjs6g1F7uVUQrjsBlr-28" value="三方商品" style="rounded=0;whiteSpace=wrap;html=1;fillColor=#dae8fc;strokeColor=#6c8ebf;fontSize=15;" vertex="1" parent="zTb9bjckPZFEyJv1jTCt-1">
          <mxGeometry x="629.5" y="450" width="91" height="40" as="geometry" />
        </mxCell>
        <mxCell id="6Pmjs6g1F7uVUQrjsBlr-29" value="营销模板" style="rounded=0;whiteSpace=wrap;html=1;fillColor=#dae8fc;strokeColor=#6c8ebf;fontSize=15;" vertex="1" parent="zTb9bjckPZFEyJv1jTCt-1">
          <mxGeometry x="754" y="450" width="91" height="40" as="geometry" />
        </mxCell>
        <mxCell id="6Pmjs6g1F7uVUQrjsBlr-30" value="抽奖活动" style="rounded=0;whiteSpace=wrap;html=1;fillColor=#dae8fc;strokeColor=#6c8ebf;fontSize=15;" vertex="1" parent="zTb9bjckPZFEyJv1jTCt-1">
          <mxGeometry x="880" y="450" width="91" height="40" as="geometry" />
        </mxCell>
        <mxCell id="6Pmjs6g1F7uVUQrjsBlr-31" value="电商店铺" style="rounded=0;whiteSpace=wrap;html=1;fillColor=#dae8fc;strokeColor=#6c8ebf;fontSize=15;" vertex="1" parent="zTb9bjckPZFEyJv1jTCt-1">
          <mxGeometry x="372" y="450" width="91" height="40" as="geometry" />
        </mxCell>
        <mxCell id="6Pmjs6g1F7uVUQrjsBlr-32" value="我的薯店" style="rounded=0;whiteSpace=wrap;html=1;fillColor=#dae8fc;strokeColor=#6c8ebf;fontSize=15;" vertex="1" parent="zTb9bjckPZFEyJv1jTCt-1">
          <mxGeometry x="497" y="450" width="91" height="40" as="geometry" />
        </mxCell>
        <mxCell id="6Pmjs6g1F7uVUQrjsBlr-33" value="直播预告" style="rounded=0;whiteSpace=wrap;html=1;fillColor=#dae8fc;strokeColor=#6c8ebf;fontSize=15;" vertex="1" parent="zTb9bjckPZFEyJv1jTCt-1">
          <mxGeometry x="1140" y="450" width="91" height="40" as="geometry" />
        </mxCell>
        <mxCell id="6Pmjs6g1F7uVUQrjsBlr-34" value="视频合集" style="rounded=0;whiteSpace=wrap;html=1;fillColor=#dae8fc;strokeColor=#6c8ebf;fontSize=15;" vertex="1" parent="zTb9bjckPZFEyJv1jTCt-1">
          <mxGeometry x="1270" y="450" width="91" height="40" as="geometry" />
        </mxCell>
        <mxCell id="6Pmjs6g1F7uVUQrjsBlr-35" value="原创声明" style="rounded=0;whiteSpace=wrap;html=1;fillColor=#dae8fc;strokeColor=#6c8ebf;fontSize=15;" vertex="1" parent="zTb9bjckPZFEyJv1jTCt-1">
          <mxGeometry x="1400" y="450" width="91" height="40" as="geometry" />
        </mxCell>
        <mxCell id="6Pmjs6g1F7uVUQrjsBlr-37" value="品牌服务brandCooperate" style="rounded=0;whiteSpace=wrap;html=1;fillColor=#d5e8d4;strokeColor=#82b366;" vertex="1" parent="zTb9bjckPZFEyJv1jTCt-1">
          <mxGeometry x="3.5" y="610" width="93.5" height="47.5" as="geometry" />
        </mxCell>
        <mxCell id="6Pmjs6g1F7uVUQrjsBlr-38" value="笔记服务&lt;br style=&quot;font-size: 15px;&quot;&gt;RNS" style="rounded=0;whiteSpace=wrap;html=1;fillColor=#d5e8d4;strokeColor=#82b366;fontSize=15;" vertex="1" parent="zTb9bjckPZFEyJv1jTCt-1">
          <mxGeometry x="1770" y="240" width="170" height="60" as="geometry" />
        </mxCell>
        <mxCell id="6Pmjs6g1F7uVUQrjsBlr-39" value="" style="endArrow=none;html=1;fontSize=15;exitX=0.75;exitY=1;exitDx=0;exitDy=0;entryX=0.25;entryY=0;entryDx=0;entryDy=0;endFill=0;startArrow=classic;startFill=1;" edge="1" parent="zTb9bjckPZFEyJv1jTCt-1" source="6Pmjs6g1F7uVUQrjsBlr-25" target="6Pmjs6g1F7uVUQrjsBlr-8">
          <mxGeometry width="50" height="50" relative="1" as="geometry">
            <mxPoint x="146.14" y="520" as="sourcePoint" />
            <mxPoint x="145.50278195488738" y="633" as="targetPoint" />
          </mxGeometry>
        </mxCell>
        <mxCell id="6Pmjs6g1F7uVUQrjsBlr-40" value="" style="endArrow=none;html=1;fontSize=15;exitX=0.25;exitY=1;exitDx=0;exitDy=0;entryX=0.5;entryY=0;entryDx=0;entryDy=0;startArrow=classic;startFill=1;endFill=0;" edge="1" parent="zTb9bjckPZFEyJv1jTCt-1" source="6Pmjs6g1F7uVUQrjsBlr-25" target="6Pmjs6g1F7uVUQrjsBlr-37">
          <mxGeometry width="50" height="50" relative="1" as="geometry">
            <mxPoint x="175" y="500" as="sourcePoint" />
            <mxPoint x="393" y="598.9999999999998" as="targetPoint" />
          </mxGeometry>
        </mxCell>
        <mxCell id="6Pmjs6g1F7uVUQrjsBlr-42" value="" style="endArrow=none;html=1;fontSize=15;exitX=0.5;exitY=1;exitDx=0;exitDy=0;entryX=0.5;entryY=0;entryDx=0;entryDy=0;endFill=0;startArrow=classic;startFill=1;" edge="1" parent="zTb9bjckPZFEyJv1jTCt-1" source="6Pmjs6g1F7uVUQrjsBlr-26" target="6Pmjs6g1F7uVUQrjsBlr-8">
          <mxGeometry width="50" height="50" relative="1" as="geometry">
            <mxPoint x="252" y="500" as="sourcePoint" />
            <mxPoint x="118" y="555" as="targetPoint" />
          </mxGeometry>
        </mxCell>
        <mxCell id="6Pmjs6g1F7uVUQrjsBlr-43" value="" style="endArrow=none;html=1;fontSize=15;exitX=0.5;exitY=1;exitDx=0;exitDy=0;entryX=0.75;entryY=0;entryDx=0;entryDy=0;endFill=0;startArrow=classic;startFill=1;" edge="1" parent="zTb9bjckPZFEyJv1jTCt-1" source="6Pmjs6g1F7uVUQrjsBlr-31" target="6Pmjs6g1F7uVUQrjsBlr-8">
          <mxGeometry width="50" height="50" relative="1" as="geometry">
            <mxPoint x="297.5" y="500" as="sourcePoint" />
            <mxPoint x="290" y="590" as="targetPoint" />
          </mxGeometry>
        </mxCell>
        <mxCell id="6Pmjs6g1F7uVUQrjsBlr-44" value="" style="endArrow=none;html=1;fontSize=15;exitX=0.5;exitY=1;exitDx=0;exitDy=0;entryX=1;entryY=0;entryDx=0;entryDy=0;endFill=0;startArrow=classic;startFill=1;" edge="1" parent="zTb9bjckPZFEyJv1jTCt-1" source="6Pmjs6g1F7uVUQrjsBlr-32" target="6Pmjs6g1F7uVUQrjsBlr-8">
          <mxGeometry width="50" height="50" relative="1" as="geometry">
            <mxPoint x="427.5" y="500" as="sourcePoint" />
            <mxPoint x="390.00000000000045" y="600" as="targetPoint" />
          </mxGeometry>
        </mxCell>
        <mxCell id="6Pmjs6g1F7uVUQrjsBlr-45" value="企业号服务&lt;br style=&quot;font-size: 15px;&quot;&gt;Deimos" style="rounded=0;whiteSpace=wrap;html=1;fillColor=#d5e8d4;strokeColor=#82b366;verticalAlign=middle;fontSize=15;" vertex="1" parent="zTb9bjckPZFEyJv1jTCt-1">
          <mxGeometry x="630" y="610" width="90.5" height="47.5" as="geometry" />
        </mxCell>
        <mxCell id="6Pmjs6g1F7uVUQrjsBlr-46" value="活动服务&lt;br style=&quot;font-size: 15px;&quot;&gt;BAS" style="rounded=0;whiteSpace=wrap;html=1;fillColor=#d5e8d4;strokeColor=#82b366;verticalAlign=middle;fontSize=15;" vertex="1" parent="zTb9bjckPZFEyJv1jTCt-1">
          <mxGeometry x="820" y="610" width="90.5" height="47.5" as="geometry" />
        </mxCell>
        <mxCell id="6Pmjs6g1F7uVUQrjsBlr-47" value="" style="endArrow=none;html=1;exitX=0.5;exitY=1;exitDx=0;exitDy=0;entryX=0.5;entryY=0;entryDx=0;entryDy=0;endFill=0;startArrow=classic;startFill=1;" edge="1" parent="zTb9bjckPZFEyJv1jTCt-1" source="6Pmjs6g1F7uVUQrjsBlr-29" target="6Pmjs6g1F7uVUQrjsBlr-46">
          <mxGeometry width="50" height="50" relative="1" as="geometry">
            <mxPoint x="685" y="500" as="sourcePoint" />
            <mxPoint x="684.75" y="609.25" as="targetPoint" />
          </mxGeometry>
        </mxCell>
        <mxCell id="6Pmjs6g1F7uVUQrjsBlr-48" value="" style="endArrow=none;html=1;exitX=0.5;exitY=1;exitDx=0;exitDy=0;entryX=0.5;entryY=0;entryDx=0;entryDy=0;endFill=0;startArrow=classic;startFill=1;" edge="1" parent="zTb9bjckPZFEyJv1jTCt-1" source="6Pmjs6g1F7uVUQrjsBlr-30" target="6Pmjs6g1F7uVUQrjsBlr-46">
          <mxGeometry width="50" height="50" relative="1" as="geometry">
            <mxPoint x="809.5" y="500" as="sourcePoint" />
            <mxPoint x="875.25" y="609.25" as="targetPoint" />
          </mxGeometry>
        </mxCell>
        <mxCell id="6Pmjs6g1F7uVUQrjsBlr-49" value="新品试用&lt;br style=&quot;font-size: 15px;&quot;&gt;ExperienceCenter" style="rounded=0;whiteSpace=wrap;html=1;fillColor=#d5e8d4;strokeColor=#82b366;verticalAlign=middle;fontSize=15;" vertex="1" parent="zTb9bjckPZFEyJv1jTCt-1">
          <mxGeometry x="985.5" y="610.75" width="140" height="47.5" as="geometry" />
        </mxCell>
        <mxCell id="6Pmjs6g1F7uVUQrjsBlr-50" value="" style="endArrow=none;html=1;exitX=0.5;exitY=1;exitDx=0;exitDy=0;entryX=0.5;entryY=0;entryDx=0;entryDy=0;endFill=0;startArrow=classic;startFill=1;" edge="1" parent="zTb9bjckPZFEyJv1jTCt-1" source="6Pmjs6g1F7uVUQrjsBlr-27" target="6Pmjs6g1F7uVUQrjsBlr-49">
          <mxGeometry width="50" height="50" relative="1" as="geometry">
            <mxPoint x="935.5" y="500" as="sourcePoint" />
            <mxPoint x="875.25" y="609.25" as="targetPoint" />
          </mxGeometry>
        </mxCell>
        <mxCell id="6Pmjs6g1F7uVUQrjsBlr-51" value="直播服务&lt;br style=&quot;font-size: 15px;&quot;&gt;Live" style="rounded=0;whiteSpace=wrap;html=1;fillColor=#d5e8d4;strokeColor=#82b366;verticalAlign=middle;fontSize=15;" vertex="1" parent="zTb9bjckPZFEyJv1jTCt-1">
          <mxGeometry x="1140.5" y="610.75" width="90.5" height="47.5" as="geometry" />
        </mxCell>
        <mxCell id="6Pmjs6g1F7uVUQrjsBlr-52" value="创作者服务&lt;br style=&quot;font-size: 15px;&quot;&gt;Creator" style="rounded=0;whiteSpace=wrap;html=1;fillColor=#d5e8d4;strokeColor=#82b366;fontSize=15;" vertex="1" parent="zTb9bjckPZFEyJv1jTCt-1">
          <mxGeometry x="1400" y="610" width="93.5" height="47.5" as="geometry" />
        </mxCell>
        <mxCell id="6Pmjs6g1F7uVUQrjsBlr-53" value="" style="endArrow=none;html=1;exitX=0.5;exitY=1;exitDx=0;exitDy=0;entryX=0.5;entryY=0;entryDx=0;entryDy=0;endFill=0;startArrow=classic;startFill=1;" edge="1" parent="zTb9bjckPZFEyJv1jTCt-1" source="6Pmjs6g1F7uVUQrjsBlr-33" target="6Pmjs6g1F7uVUQrjsBlr-51">
          <mxGeometry width="50" height="50" relative="1" as="geometry">
            <mxPoint x="1065.5" y="500" as="sourcePoint" />
            <mxPoint x="1065.75" y="603.75" as="targetPoint" />
          </mxGeometry>
        </mxCell>
        <mxCell id="6Pmjs6g1F7uVUQrjsBlr-55" value="" style="endArrow=classic;html=1;exitX=0.5;exitY=1;exitDx=0;exitDy=0;entryX=0.5;entryY=0;entryDx=0;entryDy=0;" edge="1" parent="zTb9bjckPZFEyJv1jTCt-1" source="6Pmjs6g1F7uVUQrjsBlr-35" target="6Pmjs6g1F7uVUQrjsBlr-52">
          <mxGeometry width="50" height="50" relative="1" as="geometry">
            <mxPoint x="1325.5" y="500" as="sourcePoint" />
            <mxPoint x="1326.75" y="603.75" as="targetPoint" />
          </mxGeometry>
        </mxCell>
        <mxCell id="6Pmjs6g1F7uVUQrjsBlr-58" value="外部依赖" style="text;html=1;strokeColor=none;fillColor=none;align=center;verticalAlign=middle;whiteSpace=wrap;rounded=0;fontSize=15;" vertex="1" parent="zTb9bjckPZFEyJv1jTCt-1">
          <mxGeometry x="-40" y="560" width="110" height="50" as="geometry" />
        </mxCell>
        <mxCell id="nAQqXQUC8ytGdnVlvLer-0" value="笔记标识查询" style="endArrow=none;html=1;exitX=1;exitY=0.5;exitDx=0;exitDy=0;entryX=0;entryY=0.5;entryDx=0;entryDy=0;fontSize=15;endFill=0;startArrow=classic;startFill=1;" edge="1" parent="zTb9bjckPZFEyJv1jTCt-1" source="6Pmjs6g1F7uVUQrjsBlr-5" target="6Pmjs6g1F7uVUQrjsBlr-38">
          <mxGeometry width="50" height="50" relative="1" as="geometry">
            <mxPoint x="685" y="499.9999999999998" as="sourcePoint" />
            <mxPoint x="684.7500000000005" y="609.25" as="targetPoint" />
          </mxGeometry>
        </mxCell>
        <mxCell id="nAQqXQUC8ytGdnVlvLer-1" value="根据标识查询各服务配置" style="endArrow=none;html=1;exitX=0.5;exitY=1;exitDx=0;exitDy=0;entryX=0.486;entryY=-0.009;entryDx=0;entryDy=0;fontSize=15;entryPerimeter=0;endFill=0;startArrow=classic;startFill=1;" edge="1" parent="zTb9bjckPZFEyJv1jTCt-1" source="6Pmjs6g1F7uVUQrjsBlr-5" target="6Pmjs6g1F7uVUQrjsBlr-2">
          <mxGeometry width="50" height="50" relative="1" as="geometry">
            <mxPoint x="1503.5" y="347" as="sourcePoint" />
            <mxPoint x="1620" y="347" as="targetPoint" />
          </mxGeometry>
        </mxCell>
        <mxCell id="nAQqXQUC8ytGdnVlvLer-3" value="订单服务&lt;br&gt;noteTradeCenter" style="rounded=0;whiteSpace=wrap;html=1;fillColor=#d5e8d4;strokeColor=#82b366;" vertex="1" parent="zTb9bjckPZFEyJv1jTCt-1">
          <mxGeometry x="118.25" y="610" width="93.5" height="47.5" as="geometry" />
        </mxCell>
        <mxCell id="nAQqXQUC8ytGdnVlvLer-4" value="" style="endArrow=none;html=1;fontSize=15;exitX=0.5;exitY=1;exitDx=0;exitDy=0;endFill=0;startArrow=classic;startFill=1;" edge="1" parent="zTb9bjckPZFEyJv1jTCt-1" source="6Pmjs6g1F7uVUQrjsBlr-25" target="nAQqXQUC8ytGdnVlvLer-3">
          <mxGeometry width="50" height="50" relative="1" as="geometry">
            <mxPoint x="175.00000000000045" y="500" as="sourcePoint" />
            <mxPoint x="60.250000000000455" y="620" as="targetPoint" />
          </mxGeometry>
        </mxCell>
        <mxCell id="nAQqXQUC8ytGdnVlvLer-5" value="" style="endArrow=none;html=1;fontSize=15;exitX=0.75;exitY=1;exitDx=0;exitDy=0;entryX=0.5;entryY=0;entryDx=0;entryDy=0;endFill=0;startArrow=classic;startFill=1;" edge="1" parent="zTb9bjckPZFEyJv1jTCt-1" source="6Pmjs6g1F7uVUQrjsBlr-26" target="6Pmjs6g1F7uVUQrjsBlr-6">
          <mxGeometry width="50" height="50" relative="1" as="geometry">
            <mxPoint x="297.50000000000045" y="500" as="sourcePoint" />
            <mxPoint x="298.25" y="620.7499999999998" as="targetPoint" />
          </mxGeometry>
        </mxCell>
        <mxCell id="nAQqXQUC8ytGdnVlvLer-6" value="笔记服务&lt;br style=&quot;font-size: 15px&quot;&gt;RNS" style="rounded=0;whiteSpace=wrap;html=1;fillColor=#d5e8d4;strokeColor=#82b366;verticalAlign=middle;fontSize=15;" vertex="1" parent="zTb9bjckPZFEyJv1jTCt-1">
          <mxGeometry x="1270.5" y="610.75" width="90.5" height="47.5" as="geometry" />
        </mxCell>
        <mxCell id="nAQqXQUC8ytGdnVlvLer-7" value="" style="endArrow=none;html=1;exitX=0.5;exitY=1;exitDx=0;exitDy=0;entryX=0.5;entryY=0;entryDx=0;entryDy=0;endFill=0;startArrow=classic;startFill=1;" edge="1" parent="zTb9bjckPZFEyJv1jTCt-1" source="6Pmjs6g1F7uVUQrjsBlr-34" target="nAQqXQUC8ytGdnVlvLer-6">
          <mxGeometry width="50" height="50" relative="1" as="geometry">
            <mxPoint x="1195.5" y="500" as="sourcePoint" />
            <mxPoint x="1195.75" y="620.7499999999998" as="targetPoint" />
          </mxGeometry>
        </mxCell>
        <mxCell id="nAQqXQUC8ytGdnVlvLer-8" value="Kol服务&lt;br&gt;Phobos" style="rounded=0;whiteSpace=wrap;html=1;fillColor=#d5e8d4;strokeColor=#82b366;fontSize=15;" vertex="1" parent="zTb9bjckPZFEyJv1jTCt-1">
          <mxGeometry x="1550" y="780" width="170" height="60" as="geometry" />
        </mxCell>
        <mxCell id="nAQqXQUC8ytGdnVlvLer-9" value="高级选项权益" style="rounded=0;whiteSpace=wrap;html=1;fillColor=#dae8fc;strokeColor=#6c8ebf;fontSize=15;" vertex="1" parent="zTb9bjckPZFEyJv1jTCt-1">
          <mxGeometry x="1580" y="380" width="110" height="40" as="geometry" />
        </mxCell>
        <mxCell id="nAQqXQUC8ytGdnVlvLer-10" value="权益查询" style="endArrow=none;html=1;exitX=1;exitY=1;exitDx=0;exitDy=0;entryX=0;entryY=0.5;entryDx=0;entryDy=0;fontSize=15;endFill=0;startArrow=classic;startFill=1;" edge="1" parent="zTb9bjckPZFEyJv1jTCt-1" source="6Pmjs6g1F7uVUQrjsBlr-5" target="nAQqXQUC8ytGdnVlvLer-9">
          <mxGeometry width="50" height="50" relative="1" as="geometry">
            <mxPoint x="1503.5" y="346.9999999999998" as="sourcePoint" />
            <mxPoint x="1780" y="280" as="targetPoint" />
          </mxGeometry>
        </mxCell>
        <mxCell id="nAQqXQUC8ytGdnVlvLer-11" value="KOL+ 企业号权益查询" style="endArrow=none;html=1;exitX=0.5;exitY=1;exitDx=0;exitDy=0;entryX=0.5;entryY=0;entryDx=0;entryDy=0;fontSize=15;endFill=0;startArrow=classic;startFill=1;" edge="1" parent="zTb9bjckPZFEyJv1jTCt-1" source="nAQqXQUC8ytGdnVlvLer-9" target="nAQqXQUC8ytGdnVlvLer-8">
          <mxGeometry width="50" height="50" relative="1" as="geometry">
            <mxPoint x="1643.5" y="449.9999999999998" as="sourcePoint" />
            <mxPoint x="1730" y="513" as="targetPoint" />
          </mxGeometry>
        </mxCell>
        <mxCell id="nAQqXQUC8ytGdnVlvLer-14" value="电商服务&lt;br&gt;SellerCenter" style="rounded=0;whiteSpace=wrap;html=1;fillColor=#d5e8d4;strokeColor=#82b366;verticalAlign=middle;fontSize=15;" vertex="1" parent="zTb9bjckPZFEyJv1jTCt-1">
          <mxGeometry x="1550" y="893" width="90.5" height="47.5" as="geometry" />
        </mxCell>
        <mxCell id="nAQqXQUC8ytGdnVlvLer-15" value="薯店服务&lt;br&gt;Isms" style="rounded=0;whiteSpace=wrap;html=1;fillColor=#d5e8d4;strokeColor=#82b366;verticalAlign=middle;fontSize=15;" vertex="1" parent="zTb9bjckPZFEyJv1jTCt-1">
          <mxGeometry x="1640.5" y="893" width="90.5" height="47.5" as="geometry" />
        </mxCell>
        <mxCell id="nAQqXQUC8ytGdnVlvLer-16" value="" style="endArrow=none;html=1;exitX=0.5;exitY=1;exitDx=0;exitDy=0;entryX=0.5;entryY=0;entryDx=0;entryDy=0;endFill=0;startArrow=classic;startFill=1;" edge="1" parent="zTb9bjckPZFEyJv1jTCt-1" source="nAQqXQUC8ytGdnVlvLer-8" target="nAQqXQUC8ytGdnVlvLer-14">
          <mxGeometry width="50" height="50" relative="1" as="geometry">
            <mxPoint x="1654.420000000001" y="720" as="sourcePoint" />
            <mxPoint x="1655.670000000001" y="840" as="targetPoint" />
          </mxGeometry>
        </mxCell>
        <mxCell id="nAQqXQUC8ytGdnVlvLer-33" value="电商店铺" style="edgeLabel;html=1;align=center;verticalAlign=middle;resizable=0;points=[];fontSize=15;" vertex="1" connectable="0" parent="nAQqXQUC8ytGdnVlvLer-16">
          <mxGeometry x="0.1291" relative="1" as="geometry">
            <mxPoint y="1" as="offset" />
          </mxGeometry>
        </mxCell>
        <mxCell id="nAQqXQUC8ytGdnVlvLer-18" value="我的薯店" style="endArrow=none;html=1;entryX=0.5;entryY=0;entryDx=0;entryDy=0;exitX=0.75;exitY=1;exitDx=0;exitDy=0;endFill=0;startArrow=classic;startFill=1;fontSize=15;" edge="1" parent="zTb9bjckPZFEyJv1jTCt-1" source="nAQqXQUC8ytGdnVlvLer-8" target="nAQqXQUC8ytGdnVlvLer-15">
          <mxGeometry width="50" height="50" relative="1" as="geometry">
            <mxPoint x="1680" y="670" as="sourcePoint" />
            <mxPoint x="1635.250000000001" y="820" as="targetPoint" />
          </mxGeometry>
        </mxCell>
        <mxCell id="nAQqXQUC8ytGdnVlvLer-22" value="" style="endArrow=none;html=1;exitX=0;exitY=0.5;exitDx=0;exitDy=0;entryX=0.5;entryY=1;entryDx=0;entryDy=0;endFill=0;startArrow=classic;startFill=1;" edge="1" parent="zTb9bjckPZFEyJv1jTCt-1" source="nAQqXQUC8ytGdnVlvLer-8" target="6Pmjs6g1F7uVUQrjsBlr-45">
          <mxGeometry width="50" height="50" relative="1" as="geometry">
            <mxPoint x="1184.920000000001" y="730" as="sourcePoint" />
            <mxPoint x="1186.170000000001" y="850" as="targetPoint" />
          </mxGeometry>
        </mxCell>
        <mxCell id="nAQqXQUC8ytGdnVlvLer-34" value="三方商品" style="edgeLabel;html=1;align=center;verticalAlign=middle;resizable=0;points=[];fontSize=15;" vertex="1" connectable="0" parent="nAQqXQUC8ytGdnVlvLer-22">
          <mxGeometry x="0.4561" y="3" relative="1" as="geometry">
            <mxPoint as="offset" />
          </mxGeometry>
        </mxCell>
        <mxCell id="nAQqXQUC8ytGdnVlvLer-23" value="" style="endArrow=none;html=1;entryX=0.5;entryY=1;entryDx=0;entryDy=0;exitX=0;exitY=0.25;exitDx=0;exitDy=0;endFill=0;startArrow=classic;startFill=1;" edge="1" parent="zTb9bjckPZFEyJv1jTCt-1" source="nAQqXQUC8ytGdnVlvLer-8" target="6Pmjs6g1F7uVUQrjsBlr-46">
          <mxGeometry width="50" height="50" relative="1" as="geometry">
            <mxPoint x="1550" y="760" as="sourcePoint" />
            <mxPoint x="685.2500000000005" y="667.5" as="targetPoint" />
          </mxGeometry>
        </mxCell>
        <mxCell id="nAQqXQUC8ytGdnVlvLer-35" value="营销模板 + 抽奖活动" style="edgeLabel;html=1;align=center;verticalAlign=middle;resizable=0;points=[];fontSize=15;" vertex="1" connectable="0" parent="nAQqXQUC8ytGdnVlvLer-23">
          <mxGeometry x="0.4574" relative="1" as="geometry">
            <mxPoint x="-1" as="offset" />
          </mxGeometry>
        </mxCell>
        <mxCell id="nAQqXQUC8ytGdnVlvLer-24" value="" style="endArrow=none;html=1;entryX=0.5;entryY=1;entryDx=0;entryDy=0;exitX=0;exitY=0;exitDx=0;exitDy=0;endFill=0;startArrow=classic;startFill=1;" edge="1" parent="zTb9bjckPZFEyJv1jTCt-1" source="nAQqXQUC8ytGdnVlvLer-8" target="6Pmjs6g1F7uVUQrjsBlr-49">
          <mxGeometry width="50" height="50" relative="1" as="geometry">
            <mxPoint x="1560" y="840" as="sourcePoint" />
            <mxPoint x="875.2500000000005" y="667.5" as="targetPoint" />
          </mxGeometry>
        </mxCell>
        <mxCell id="nAQqXQUC8ytGdnVlvLer-36" value="新品试用" style="edgeLabel;html=1;align=center;verticalAlign=middle;resizable=0;points=[];fontSize=15;" vertex="1" connectable="0" parent="nAQqXQUC8ytGdnVlvLer-24">
          <mxGeometry x="0.1121" y="-4" relative="1" as="geometry">
            <mxPoint as="offset" />
          </mxGeometry>
        </mxCell>
        <mxCell id="nAQqXQUC8ytGdnVlvLer-25" value="分销服务&lt;br&gt;DUS" style="rounded=0;whiteSpace=wrap;html=1;fillColor=#d5e8d4;strokeColor=#82b366;verticalAlign=middle;fontSize=15;" vertex="1" parent="zTb9bjckPZFEyJv1jTCt-1">
          <mxGeometry x="1401.5" y="892.5" width="90.5" height="47.5" as="geometry" />
        </mxCell>
        <mxCell id="nAQqXQUC8ytGdnVlvLer-26" value="好物推荐" style="endArrow=none;html=1;entryX=0.5;entryY=0;entryDx=0;entryDy=0;exitX=0.25;exitY=1;exitDx=0;exitDy=0;endFill=0;startArrow=classic;startFill=1;fontSize=15;" edge="1" parent="zTb9bjckPZFEyJv1jTCt-1" source="nAQqXQUC8ytGdnVlvLer-8" target="nAQqXQUC8ytGdnVlvLer-25">
          <mxGeometry width="50" height="50" relative="1" as="geometry">
            <mxPoint x="1640" y="840" as="sourcePoint" />
            <mxPoint x="1605.250000000001" y="903" as="targetPoint" />
          </mxGeometry>
        </mxCell>
        <mxCell id="nAQqXQUC8ytGdnVlvLer-27" value="" style="endArrow=none;html=1;entryX=1;entryY=0;entryDx=0;entryDy=0;exitX=0.25;exitY=1;exitDx=0;exitDy=0;endFill=0;startArrow=classic;startFill=1;" edge="1" parent="zTb9bjckPZFEyJv1jTCt-1" source="nAQqXQUC8ytGdnVlvLer-9" target="6Pmjs6g1F7uVUQrjsBlr-51">
          <mxGeometry width="50" height="50" relative="1" as="geometry">
            <mxPoint x="1560" y="790" as="sourcePoint" />
            <mxPoint x="1065.5" y="668.2500000000002" as="targetPoint" />
          </mxGeometry>
        </mxCell>
        <mxCell id="nAQqXQUC8ytGdnVlvLer-28" value="" style="endArrow=none;html=1;entryX=1;entryY=0;entryDx=0;entryDy=0;exitX=0.25;exitY=1;exitDx=0;exitDy=0;endFill=0;startArrow=classic;startFill=1;" edge="1" parent="zTb9bjckPZFEyJv1jTCt-1" source="nAQqXQUC8ytGdnVlvLer-9" target="nAQqXQUC8ytGdnVlvLer-6">
          <mxGeometry width="50" height="50" relative="1" as="geometry">
            <mxPoint x="1617.5" y="430" as="sourcePoint" />
            <mxPoint x="1241" y="620.7500000000002" as="targetPoint" />
          </mxGeometry>
        </mxCell>
        <mxCell id="nAQqXQUC8ytGdnVlvLer-30" value="" style="endArrow=none;html=1;entryX=1;entryY=0;entryDx=0;entryDy=0;exitX=0.25;exitY=1;exitDx=0;exitDy=0;startArrow=classic;startFill=1;endFill=0;" edge="1" parent="zTb9bjckPZFEyJv1jTCt-1" source="nAQqXQUC8ytGdnVlvLer-9" target="6Pmjs6g1F7uVUQrjsBlr-52">
          <mxGeometry width="50" height="50" relative="1" as="geometry">
            <mxPoint x="1617.5" y="430" as="sourcePoint" />
            <mxPoint x="1371" y="620.7500000000002" as="targetPoint" />
          </mxGeometry>
        </mxCell>
        <mxCell id="nAQqXQUC8ytGdnVlvLer-31" value="菜单权益" style="text;html=1;strokeColor=none;fillColor=none;align=center;verticalAlign=middle;whiteSpace=wrap;rounded=0;fontSize=15;" vertex="1" parent="zTb9bjckPZFEyJv1jTCt-1">
          <mxGeometry x="760" y="204.37" width="125" height="30.42" as="geometry" />
        </mxCell>
        <mxCell id="nAQqXQUC8ytGdnVlvLer-32" value="品牌合作 + 商业报备" style="text;html=1;strokeColor=none;fillColor=none;align=center;verticalAlign=middle;whiteSpace=wrap;rounded=0;fontSize=15;" vertex="1" parent="zTb9bjckPZFEyJv1jTCt-1">
          <mxGeometry x="1720" y="794.79" width="160" height="30.42" as="geometry" />
        </mxCell>
      </root>
    </mxGraphModel>
  </diagram>
</mxfile>
